<mxfile host="app.diagrams.net" agent="Mozilla/5.0 (Windows NT 10.0; Win64; x64) AppleWebKit/537.36 (KHTML, like Gecko) Chrome/140.0.0.0 Safari/537.36 Edg/140.0.0.0" version="28.2.5">
  <diagram name="Página-1" id="nT6EQhrjQ5IhEwxDP3JS">
    <mxGraphModel dx="1418" dy="786" grid="1" gridSize="10" guides="1" tooltips="1" connect="1" arrows="1" fold="1" page="1" pageScale="1" pageWidth="827" pageHeight="1169" math="0" shadow="0">
      <root>
        <mxCell id="0" />
        <mxCell id="1" parent="0" />
        <mxCell id="6D66r-xs9sp-bjpmaU54-22" value="inicio" style="ellipse;whiteSpace=wrap;html=1;" vertex="1" parent="1">
          <mxGeometry x="354" y="50" width="120" height="80" as="geometry" />
        </mxCell>
        <mxCell id="6D66r-xs9sp-bjpmaU54-23" value="fim" style="ellipse;whiteSpace=wrap;html=1;" vertex="1" parent="1">
          <mxGeometry x="354" y="640" width="120" height="80" as="geometry" />
        </mxCell>
        <mxCell id="6D66r-xs9sp-bjpmaU54-24" value="ler N" style="shape=parallelogram;perimeter=parallelogramPerimeter;whiteSpace=wrap;html=1;fixedSize=1;" vertex="1" parent="1">
          <mxGeometry x="354" y="190" width="120" height="60" as="geometry" />
        </mxCell>
        <mxCell id="6D66r-xs9sp-bjpmaU54-27" style="edgeStyle=orthogonalEdgeStyle;rounded=0;orthogonalLoop=1;jettySize=auto;html=1;" edge="1" parent="1" source="6D66r-xs9sp-bjpmaU54-25" target="6D66r-xs9sp-bjpmaU54-26">
          <mxGeometry relative="1" as="geometry" />
        </mxCell>
        <mxCell id="6D66r-xs9sp-bjpmaU54-40" value="sim" style="edgeLabel;html=1;align=center;verticalAlign=middle;resizable=0;points=[];" vertex="1" connectable="0" parent="6D66r-xs9sp-bjpmaU54-27">
          <mxGeometry x="-0.2381" y="2" relative="1" as="geometry">
            <mxPoint as="offset" />
          </mxGeometry>
        </mxCell>
        <mxCell id="6D66r-xs9sp-bjpmaU54-29" style="edgeStyle=orthogonalEdgeStyle;rounded=0;orthogonalLoop=1;jettySize=auto;html=1;" edge="1" parent="1" source="6D66r-xs9sp-bjpmaU54-25" target="6D66r-xs9sp-bjpmaU54-30">
          <mxGeometry relative="1" as="geometry">
            <mxPoint x="230" y="350" as="targetPoint" />
            <Array as="points" />
          </mxGeometry>
        </mxCell>
        <mxCell id="6D66r-xs9sp-bjpmaU54-41" value="não" style="edgeLabel;html=1;align=center;verticalAlign=middle;resizable=0;points=[];" vertex="1" connectable="0" parent="6D66r-xs9sp-bjpmaU54-29">
          <mxGeometry x="-0.6196" y="5" relative="1" as="geometry">
            <mxPoint as="offset" />
          </mxGeometry>
        </mxCell>
        <mxCell id="6D66r-xs9sp-bjpmaU54-25" value="N == 0" style="rhombus;whiteSpace=wrap;html=1;" vertex="1" parent="1">
          <mxGeometry x="374" y="310" width="80" height="80" as="geometry" />
        </mxCell>
        <mxCell id="6D66r-xs9sp-bjpmaU54-28" style="edgeStyle=orthogonalEdgeStyle;rounded=0;orthogonalLoop=1;jettySize=auto;html=1;" edge="1" parent="1" source="6D66r-xs9sp-bjpmaU54-26" target="6D66r-xs9sp-bjpmaU54-23">
          <mxGeometry relative="1" as="geometry">
            <mxPoint x="698" y="710" as="targetPoint" />
            <Array as="points">
              <mxPoint x="690" y="710" />
            </Array>
          </mxGeometry>
        </mxCell>
        <mxCell id="6D66r-xs9sp-bjpmaU54-26" value="escrever: &quot;digitou zero a desligar programa&quot;" style="shape=parallelogram;perimeter=parallelogramPerimeter;whiteSpace=wrap;html=1;fixedSize=1;" vertex="1" parent="1">
          <mxGeometry x="560" y="330" width="260" height="60" as="geometry" />
        </mxCell>
        <mxCell id="6D66r-xs9sp-bjpmaU54-31" style="edgeStyle=orthogonalEdgeStyle;rounded=0;orthogonalLoop=1;jettySize=auto;html=1;" edge="1" parent="1" source="6D66r-xs9sp-bjpmaU54-30" target="6D66r-xs9sp-bjpmaU54-36">
          <mxGeometry relative="1" as="geometry">
            <mxPoint x="230" y="480" as="targetPoint" />
            <Array as="points">
              <mxPoint x="140" y="425" />
              <mxPoint x="250" y="425" />
              <mxPoint x="250" y="450" />
              <mxPoint x="240" y="450" />
            </Array>
          </mxGeometry>
        </mxCell>
        <mxCell id="6D66r-xs9sp-bjpmaU54-34" value="não" style="edgeLabel;html=1;align=center;verticalAlign=middle;resizable=0;points=[];" vertex="1" connectable="0" parent="6D66r-xs9sp-bjpmaU54-31">
          <mxGeometry x="-0.0952" y="-1" relative="1" as="geometry">
            <mxPoint as="offset" />
          </mxGeometry>
        </mxCell>
        <mxCell id="6D66r-xs9sp-bjpmaU54-30" value="N MOD 2 == 0" style="rhombus;whiteSpace=wrap;html=1;" vertex="1" parent="1">
          <mxGeometry x="80" y="320" width="120" height="80" as="geometry" />
        </mxCell>
        <mxCell id="6D66r-xs9sp-bjpmaU54-32" style="edgeStyle=orthogonalEdgeStyle;rounded=0;orthogonalLoop=1;jettySize=auto;html=1;" edge="1" parent="1" source="6D66r-xs9sp-bjpmaU54-30" target="6D66r-xs9sp-bjpmaU54-35">
          <mxGeometry relative="1" as="geometry">
            <mxPoint x="70" y="480" as="targetPoint" />
            <mxPoint x="140" y="390" as="sourcePoint" />
            <Array as="points">
              <mxPoint x="140" y="420" />
              <mxPoint x="40" y="420" />
              <mxPoint x="40" y="450" />
              <mxPoint x="70" y="450" />
            </Array>
          </mxGeometry>
        </mxCell>
        <mxCell id="6D66r-xs9sp-bjpmaU54-33" value="SIM" style="edgeLabel;html=1;align=center;verticalAlign=middle;resizable=0;points=[];" vertex="1" connectable="0" parent="6D66r-xs9sp-bjpmaU54-32">
          <mxGeometry x="-0.1333" y="-1" relative="1" as="geometry">
            <mxPoint as="offset" />
          </mxGeometry>
        </mxCell>
        <mxCell id="6D66r-xs9sp-bjpmaU54-35" value="Escrever: &quot;par&quot;" style="shape=parallelogram;perimeter=parallelogramPerimeter;whiteSpace=wrap;html=1;fixedSize=1;" vertex="1" parent="1">
          <mxGeometry x="20" y="500" width="120" height="60" as="geometry" />
        </mxCell>
        <mxCell id="6D66r-xs9sp-bjpmaU54-36" value="Escrever: &quot;impar&quot;" style="shape=parallelogram;perimeter=parallelogramPerimeter;whiteSpace=wrap;html=1;fixedSize=1;" vertex="1" parent="1">
          <mxGeometry x="180" y="500" width="120" height="60" as="geometry" />
        </mxCell>
        <mxCell id="6D66r-xs9sp-bjpmaU54-37" value="" style="endArrow=classic;html=1;rounded=0;" edge="1" parent="1" source="6D66r-xs9sp-bjpmaU54-36" target="6D66r-xs9sp-bjpmaU54-24">
          <mxGeometry width="50" height="50" relative="1" as="geometry">
            <mxPoint x="250" y="600" as="sourcePoint" />
            <mxPoint x="300" y="200" as="targetPoint" />
            <Array as="points">
              <mxPoint x="350" y="590" />
              <mxPoint x="300" y="410" />
              <mxPoint x="300" y="300" />
              <mxPoint x="240" y="250" />
            </Array>
          </mxGeometry>
        </mxCell>
        <mxCell id="6D66r-xs9sp-bjpmaU54-39" value="" style="endArrow=classic;html=1;rounded=0;entryX=1;entryY=0.5;entryDx=0;entryDy=0;" edge="1" parent="1" source="6D66r-xs9sp-bjpmaU54-35" target="6D66r-xs9sp-bjpmaU54-24">
          <mxGeometry width="50" height="50" relative="1" as="geometry">
            <mxPoint x="110" y="650" as="sourcePoint" />
            <mxPoint x="510" y="540" as="targetPoint" />
            <Array as="points">
              <mxPoint x="210" y="710" />
              <mxPoint x="490" y="590" />
            </Array>
          </mxGeometry>
        </mxCell>
        <mxCell id="6D66r-xs9sp-bjpmaU54-42" value="" style="endArrow=classic;html=1;rounded=0;" edge="1" parent="1" source="6D66r-xs9sp-bjpmaU54-24" target="6D66r-xs9sp-bjpmaU54-25">
          <mxGeometry width="50" height="50" relative="1" as="geometry">
            <mxPoint x="420" y="300" as="sourcePoint" />
            <mxPoint x="470" y="250" as="targetPoint" />
          </mxGeometry>
        </mxCell>
        <mxCell id="6D66r-xs9sp-bjpmaU54-43" value="" style="endArrow=classic;html=1;rounded=0;" edge="1" parent="1" source="6D66r-xs9sp-bjpmaU54-22" target="6D66r-xs9sp-bjpmaU54-24">
          <mxGeometry width="50" height="50" relative="1" as="geometry">
            <mxPoint x="414" y="100" as="sourcePoint" />
            <mxPoint x="414" y="160" as="targetPoint" />
          </mxGeometry>
        </mxCell>
      </root>
    </mxGraphModel>
  </diagram>
</mxfile>
